M48
; DRILL file {KiCad 8.0.8} date 2025-02-25T17:24:50-0500
; FORMAT={-:-/ absolute / inch / decimal}
; #@! TF.CreationDate,2025-02-25T17:24:50-05:00
; #@! TF.GenerationSoftware,Kicad,Pcbnew,8.0.8
; #@! TF.FileFunction,Plated,1,2,PTH
FMAT,2
INCH
; #@! TA.AperFunction,Plated,PTH,ViaDrill
T1C0.0118
; #@! TA.AperFunction,Plated,PTH,ComponentDrill
T2C0.0350
; #@! TA.AperFunction,Plated,PTH,ComponentDrill
T3C0.0591
%
G90
G05
T1
X4.5134Y-4.4734
X4.6555Y-4.0002
T2
X4.8834Y-3.5156
X4.8834Y-3.6156
X4.8834Y-3.7156
X4.8834Y-3.8156
X4.8834Y-3.9156
X4.8834Y-4.0156
X4.8834Y-4.1156
X4.9803Y-3.6656
X4.9803Y-3.7656
X4.9803Y-3.8656
X4.9803Y-3.9656
X5.1441Y-4.035
X5.2228Y-4.035
X5.3803Y-3.6656
X5.3803Y-3.7656
X5.3803Y-3.8656
X5.3803Y-3.9656
X5.4834Y-3.5156
X5.4834Y-3.6156
X5.4834Y-3.7156
X5.4834Y-3.8156
X5.4834Y-3.9156
X5.4834Y-4.0156
X5.4834Y-4.1156
T3
X4.2634Y-5.5262
X4.5134Y-5.4262
X4.6453Y-4.7437
X4.8953Y-4.6437
X5.0276Y-5.5258
X5.2776Y-5.4258
X5.4079Y-4.7443
X5.6579Y-4.6443
X5.789Y-5.5262
X6.039Y-5.4262
M30
