%TF.GenerationSoftware,KiCad,Pcbnew,8.0.8*%
%TF.CreationDate,2025-02-25T17:24:45-05:00*%
%TF.ProjectId,keyboard,6b657962-6f61-4726-942e-6b696361645f,rev?*%
%TF.SameCoordinates,Original*%
%TF.FileFunction,Drillmap*%
%TF.FilePolarity,Positive*%
%FSLAX45Y45*%
G04 Gerber Fmt 4.5, Leading zero omitted, Abs format (unit mm)*
G04 Created by KiCad (PCBNEW 8.0.8) date 2025-02-25 17:24:45*
%MOMM*%
%LPD*%
G01*
G04 APERTURE LIST*
%ADD10C,0.200000*%
%ADD11C,0.120000*%
%ADD12C,0.100000*%
%ADD13C,0.150000*%
G04 APERTURE END LIST*
D10*
X9650000Y-8610500D02*
X16650000Y-8610500D01*
X16650000Y-15610500D01*
X9650000Y-15610500D01*
X9650000Y-8610500D01*
D11*
X12650000Y-8716500D02*
X12650000Y-10248981D01*
X12650000Y-10248981D02*
X13665901Y-10248981D01*
X13665901Y-8716500D02*
X12650000Y-8716500D01*
X13666000Y-10248981D02*
X13666000Y-8716500D01*
D10*
D12*
X11449000Y-11347500D02*
X11479000Y-11377500D01*
X11479000Y-11347500D02*
X11449000Y-11377500D01*
X11810000Y-10145500D02*
X11840000Y-10175500D01*
X11840000Y-10145500D02*
X11810000Y-10175500D01*
X12448351Y-8929500D02*
G75*
G02*
X12359451Y-8929500I-44450J0D01*
G01*
X12359451Y-8929500D02*
G75*
G02*
X12448351Y-8929500I44450J0D01*
G01*
X12448351Y-9183500D02*
G75*
G02*
X12359451Y-9183500I-44450J0D01*
G01*
X12359451Y-9183500D02*
G75*
G02*
X12448351Y-9183500I44450J0D01*
G01*
X12448351Y-9437500D02*
G75*
G02*
X12359451Y-9437500I-44450J0D01*
G01*
X12359451Y-9437500D02*
G75*
G02*
X12448351Y-9437500I44450J0D01*
G01*
X12448351Y-9691500D02*
G75*
G02*
X12359451Y-9691500I-44450J0D01*
G01*
X12359451Y-9691500D02*
G75*
G02*
X12448351Y-9691500I44450J0D01*
G01*
X12448351Y-9945500D02*
G75*
G02*
X12359451Y-9945500I-44450J0D01*
G01*
X12359451Y-9945500D02*
G75*
G02*
X12448351Y-9945500I44450J0D01*
G01*
X12448351Y-10199500D02*
G75*
G02*
X12359451Y-10199500I-44450J0D01*
G01*
X12359451Y-10199500D02*
G75*
G02*
X12448351Y-10199500I44450J0D01*
G01*
X12448351Y-10453500D02*
G75*
G02*
X12359451Y-10453500I-44450J0D01*
G01*
X12359451Y-10453500D02*
G75*
G02*
X12448351Y-10453500I44450J0D01*
G01*
X12694450Y-9310500D02*
G75*
G02*
X12605550Y-9310500I-44450J0D01*
G01*
X12605550Y-9310500D02*
G75*
G02*
X12694450Y-9310500I44450J0D01*
G01*
X12694450Y-9564500D02*
G75*
G02*
X12605550Y-9564500I-44450J0D01*
G01*
X12605550Y-9564500D02*
G75*
G02*
X12694450Y-9564500I44450J0D01*
G01*
X12694450Y-9818500D02*
G75*
G02*
X12605550Y-9818500I-44450J0D01*
G01*
X12605550Y-9818500D02*
G75*
G02*
X12694450Y-9818500I44450J0D01*
G01*
X12694450Y-10072500D02*
G75*
G02*
X12605550Y-10072500I-44450J0D01*
G01*
X12605550Y-10072500D02*
G75*
G02*
X12694450Y-10072500I44450J0D01*
G01*
X13110351Y-10248981D02*
G75*
G02*
X13021451Y-10248981I-44450J0D01*
G01*
X13021451Y-10248981D02*
G75*
G02*
X13110351Y-10248981I44450J0D01*
G01*
X13310351Y-10248981D02*
G75*
G02*
X13221451Y-10248981I-44450J0D01*
G01*
X13221451Y-10248981D02*
G75*
G02*
X13310351Y-10248981I44450J0D01*
G01*
X13710450Y-9310500D02*
G75*
G02*
X13621550Y-9310500I-44450J0D01*
G01*
X13621550Y-9310500D02*
G75*
G02*
X13710450Y-9310500I44450J0D01*
G01*
X13710450Y-9564500D02*
G75*
G02*
X13621550Y-9564500I-44450J0D01*
G01*
X13621550Y-9564500D02*
G75*
G02*
X13710450Y-9564500I44450J0D01*
G01*
X13710450Y-9818500D02*
G75*
G02*
X13621550Y-9818500I-44450J0D01*
G01*
X13621550Y-9818500D02*
G75*
G02*
X13710450Y-9818500I44450J0D01*
G01*
X13710450Y-10072500D02*
G75*
G02*
X13621550Y-10072500I-44450J0D01*
G01*
X13621550Y-10072500D02*
G75*
G02*
X13710450Y-10072500I44450J0D01*
G01*
X13972351Y-8929500D02*
G75*
G02*
X13883451Y-8929500I-44450J0D01*
G01*
X13883451Y-8929500D02*
G75*
G02*
X13972351Y-8929500I44450J0D01*
G01*
X13972351Y-9183500D02*
G75*
G02*
X13883451Y-9183500I-44450J0D01*
G01*
X13883451Y-9183500D02*
G75*
G02*
X13972351Y-9183500I44450J0D01*
G01*
X13972351Y-9437500D02*
G75*
G02*
X13883451Y-9437500I-44450J0D01*
G01*
X13883451Y-9437500D02*
G75*
G02*
X13972351Y-9437500I44450J0D01*
G01*
X13972351Y-9691500D02*
G75*
G02*
X13883451Y-9691500I-44450J0D01*
G01*
X13883451Y-9691500D02*
G75*
G02*
X13972351Y-9691500I44450J0D01*
G01*
X13972351Y-9945500D02*
G75*
G02*
X13883451Y-9945500I-44450J0D01*
G01*
X13883451Y-9945500D02*
G75*
G02*
X13972351Y-9945500I44450J0D01*
G01*
X13972351Y-10199500D02*
G75*
G02*
X13883451Y-10199500I-44450J0D01*
G01*
X13883451Y-10199500D02*
G75*
G02*
X13972351Y-10199500I44450J0D01*
G01*
X13972351Y-10453500D02*
G75*
G02*
X13883451Y-10453500I-44450J0D01*
G01*
X13883451Y-10453500D02*
G75*
G02*
X13972351Y-10453500I44450J0D01*
G01*
D13*
X10829000Y-13961500D02*
X10829000Y-14111500D01*
X10754000Y-14036500D02*
X10904000Y-14036500D01*
X11464000Y-13707500D02*
X11464000Y-13857500D01*
X11389000Y-13782500D02*
X11539000Y-13782500D01*
X11799000Y-11974000D02*
X11799000Y-12124000D01*
X11724000Y-12049000D02*
X11874000Y-12049000D01*
X12434000Y-11720000D02*
X12434000Y-11870000D01*
X12359000Y-11795000D02*
X12509000Y-11795000D01*
X12770000Y-13960500D02*
X12770000Y-14110500D01*
X12695000Y-14035500D02*
X12845000Y-14035500D01*
X13405000Y-13706500D02*
X13405000Y-13856500D01*
X13330000Y-13781500D02*
X13480000Y-13781500D01*
X13736000Y-11975500D02*
X13736000Y-12125500D01*
X13661000Y-12050500D02*
X13811000Y-12050500D01*
X14371000Y-11721500D02*
X14371000Y-11871500D01*
X14296000Y-11796500D02*
X14446000Y-11796500D01*
X14704000Y-13961500D02*
X14704000Y-14111500D01*
X14629000Y-14036500D02*
X14779000Y-14036500D01*
X15339000Y-13707500D02*
X15339000Y-13857500D01*
X15264000Y-13782500D02*
X15414000Y-13782500D01*
D10*
X9900777Y-15931984D02*
X9900777Y-15731984D01*
X9900777Y-15731984D02*
X9948396Y-15731984D01*
X9948396Y-15731984D02*
X9976967Y-15741508D01*
X9976967Y-15741508D02*
X9996015Y-15760555D01*
X9996015Y-15760555D02*
X10005539Y-15779603D01*
X10005539Y-15779603D02*
X10015063Y-15817698D01*
X10015063Y-15817698D02*
X10015063Y-15846269D01*
X10015063Y-15846269D02*
X10005539Y-15884365D01*
X10005539Y-15884365D02*
X9996015Y-15903412D01*
X9996015Y-15903412D02*
X9976967Y-15922460D01*
X9976967Y-15922460D02*
X9948396Y-15931984D01*
X9948396Y-15931984D02*
X9900777Y-15931984D01*
X10100777Y-15931984D02*
X10100777Y-15798650D01*
X10100777Y-15836746D02*
X10110301Y-15817698D01*
X10110301Y-15817698D02*
X10119824Y-15808174D01*
X10119824Y-15808174D02*
X10138872Y-15798650D01*
X10138872Y-15798650D02*
X10157920Y-15798650D01*
X10224586Y-15931984D02*
X10224586Y-15798650D01*
X10224586Y-15731984D02*
X10215063Y-15741508D01*
X10215063Y-15741508D02*
X10224586Y-15751031D01*
X10224586Y-15751031D02*
X10234110Y-15741508D01*
X10234110Y-15741508D02*
X10224586Y-15731984D01*
X10224586Y-15731984D02*
X10224586Y-15751031D01*
X10348396Y-15931984D02*
X10329348Y-15922460D01*
X10329348Y-15922460D02*
X10319824Y-15903412D01*
X10319824Y-15903412D02*
X10319824Y-15731984D01*
X10453158Y-15931984D02*
X10434110Y-15922460D01*
X10434110Y-15922460D02*
X10424586Y-15903412D01*
X10424586Y-15903412D02*
X10424586Y-15731984D01*
X10681729Y-15931984D02*
X10681729Y-15731984D01*
X10681729Y-15731984D02*
X10748396Y-15874841D01*
X10748396Y-15874841D02*
X10815063Y-15731984D01*
X10815063Y-15731984D02*
X10815063Y-15931984D01*
X10996015Y-15931984D02*
X10996015Y-15827222D01*
X10996015Y-15827222D02*
X10986491Y-15808174D01*
X10986491Y-15808174D02*
X10967444Y-15798650D01*
X10967444Y-15798650D02*
X10929348Y-15798650D01*
X10929348Y-15798650D02*
X10910301Y-15808174D01*
X10996015Y-15922460D02*
X10976967Y-15931984D01*
X10976967Y-15931984D02*
X10929348Y-15931984D01*
X10929348Y-15931984D02*
X10910301Y-15922460D01*
X10910301Y-15922460D02*
X10900777Y-15903412D01*
X10900777Y-15903412D02*
X10900777Y-15884365D01*
X10900777Y-15884365D02*
X10910301Y-15865317D01*
X10910301Y-15865317D02*
X10929348Y-15855793D01*
X10929348Y-15855793D02*
X10976967Y-15855793D01*
X10976967Y-15855793D02*
X10996015Y-15846269D01*
X11091253Y-15798650D02*
X11091253Y-15998650D01*
X11091253Y-15808174D02*
X11110301Y-15798650D01*
X11110301Y-15798650D02*
X11148396Y-15798650D01*
X11148396Y-15798650D02*
X11167444Y-15808174D01*
X11167444Y-15808174D02*
X11176967Y-15817698D01*
X11176967Y-15817698D02*
X11186491Y-15836746D01*
X11186491Y-15836746D02*
X11186491Y-15893888D01*
X11186491Y-15893888D02*
X11176967Y-15912936D01*
X11176967Y-15912936D02*
X11167444Y-15922460D01*
X11167444Y-15922460D02*
X11148396Y-15931984D01*
X11148396Y-15931984D02*
X11110301Y-15931984D01*
X11110301Y-15931984D02*
X11091253Y-15922460D01*
X11272205Y-15912936D02*
X11281729Y-15922460D01*
X11281729Y-15922460D02*
X11272205Y-15931984D01*
X11272205Y-15931984D02*
X11262682Y-15922460D01*
X11262682Y-15922460D02*
X11272205Y-15912936D01*
X11272205Y-15912936D02*
X11272205Y-15931984D01*
X11272205Y-15808174D02*
X11281729Y-15817698D01*
X11281729Y-15817698D02*
X11272205Y-15827222D01*
X11272205Y-15827222D02*
X11262682Y-15817698D01*
X11262682Y-15817698D02*
X11272205Y-15808174D01*
X11272205Y-15808174D02*
X11272205Y-15827222D01*
D12*
X9610000Y-16245500D02*
X9640000Y-16275500D01*
X9640000Y-16245500D02*
X9610000Y-16275500D01*
D10*
X9938872Y-16151984D02*
X9957920Y-16151984D01*
X9957920Y-16151984D02*
X9976967Y-16161508D01*
X9976967Y-16161508D02*
X9986491Y-16171031D01*
X9986491Y-16171031D02*
X9996015Y-16190079D01*
X9996015Y-16190079D02*
X10005539Y-16228174D01*
X10005539Y-16228174D02*
X10005539Y-16275793D01*
X10005539Y-16275793D02*
X9996015Y-16313888D01*
X9996015Y-16313888D02*
X9986491Y-16332936D01*
X9986491Y-16332936D02*
X9976967Y-16342460D01*
X9976967Y-16342460D02*
X9957920Y-16351984D01*
X9957920Y-16351984D02*
X9938872Y-16351984D01*
X9938872Y-16351984D02*
X9919824Y-16342460D01*
X9919824Y-16342460D02*
X9910301Y-16332936D01*
X9910301Y-16332936D02*
X9900777Y-16313888D01*
X9900777Y-16313888D02*
X9891253Y-16275793D01*
X9891253Y-16275793D02*
X9891253Y-16228174D01*
X9891253Y-16228174D02*
X9900777Y-16190079D01*
X9900777Y-16190079D02*
X9910301Y-16171031D01*
X9910301Y-16171031D02*
X9919824Y-16161508D01*
X9919824Y-16161508D02*
X9938872Y-16151984D01*
X10091253Y-16332936D02*
X10100777Y-16342460D01*
X10100777Y-16342460D02*
X10091253Y-16351984D01*
X10091253Y-16351984D02*
X10081729Y-16342460D01*
X10081729Y-16342460D02*
X10091253Y-16332936D01*
X10091253Y-16332936D02*
X10091253Y-16351984D01*
X10167444Y-16151984D02*
X10291253Y-16151984D01*
X10291253Y-16151984D02*
X10224586Y-16228174D01*
X10224586Y-16228174D02*
X10253158Y-16228174D01*
X10253158Y-16228174D02*
X10272205Y-16237698D01*
X10272205Y-16237698D02*
X10281729Y-16247222D01*
X10281729Y-16247222D02*
X10291253Y-16266269D01*
X10291253Y-16266269D02*
X10291253Y-16313888D01*
X10291253Y-16313888D02*
X10281729Y-16332936D01*
X10281729Y-16332936D02*
X10272205Y-16342460D01*
X10272205Y-16342460D02*
X10253158Y-16351984D01*
X10253158Y-16351984D02*
X10196015Y-16351984D01*
X10196015Y-16351984D02*
X10176967Y-16342460D01*
X10176967Y-16342460D02*
X10167444Y-16332936D01*
X10415063Y-16151984D02*
X10434110Y-16151984D01*
X10434110Y-16151984D02*
X10453158Y-16161508D01*
X10453158Y-16161508D02*
X10462682Y-16171031D01*
X10462682Y-16171031D02*
X10472205Y-16190079D01*
X10472205Y-16190079D02*
X10481729Y-16228174D01*
X10481729Y-16228174D02*
X10481729Y-16275793D01*
X10481729Y-16275793D02*
X10472205Y-16313888D01*
X10472205Y-16313888D02*
X10462682Y-16332936D01*
X10462682Y-16332936D02*
X10453158Y-16342460D01*
X10453158Y-16342460D02*
X10434110Y-16351984D01*
X10434110Y-16351984D02*
X10415063Y-16351984D01*
X10415063Y-16351984D02*
X10396015Y-16342460D01*
X10396015Y-16342460D02*
X10386491Y-16332936D01*
X10386491Y-16332936D02*
X10376967Y-16313888D01*
X10376967Y-16313888D02*
X10367444Y-16275793D01*
X10367444Y-16275793D02*
X10367444Y-16228174D01*
X10367444Y-16228174D02*
X10376967Y-16190079D01*
X10376967Y-16190079D02*
X10386491Y-16171031D01*
X10386491Y-16171031D02*
X10396015Y-16161508D01*
X10396015Y-16161508D02*
X10415063Y-16151984D01*
X10605539Y-16151984D02*
X10624586Y-16151984D01*
X10624586Y-16151984D02*
X10643634Y-16161508D01*
X10643634Y-16161508D02*
X10653158Y-16171031D01*
X10653158Y-16171031D02*
X10662682Y-16190079D01*
X10662682Y-16190079D02*
X10672205Y-16228174D01*
X10672205Y-16228174D02*
X10672205Y-16275793D01*
X10672205Y-16275793D02*
X10662682Y-16313888D01*
X10662682Y-16313888D02*
X10653158Y-16332936D01*
X10653158Y-16332936D02*
X10643634Y-16342460D01*
X10643634Y-16342460D02*
X10624586Y-16351984D01*
X10624586Y-16351984D02*
X10605539Y-16351984D01*
X10605539Y-16351984D02*
X10586491Y-16342460D01*
X10586491Y-16342460D02*
X10576967Y-16332936D01*
X10576967Y-16332936D02*
X10567444Y-16313888D01*
X10567444Y-16313888D02*
X10557920Y-16275793D01*
X10557920Y-16275793D02*
X10557920Y-16228174D01*
X10557920Y-16228174D02*
X10567444Y-16190079D01*
X10567444Y-16190079D02*
X10576967Y-16171031D01*
X10576967Y-16171031D02*
X10586491Y-16161508D01*
X10586491Y-16161508D02*
X10605539Y-16151984D01*
X10757920Y-16351984D02*
X10757920Y-16218650D01*
X10757920Y-16237698D02*
X10767444Y-16228174D01*
X10767444Y-16228174D02*
X10786491Y-16218650D01*
X10786491Y-16218650D02*
X10815063Y-16218650D01*
X10815063Y-16218650D02*
X10834110Y-16228174D01*
X10834110Y-16228174D02*
X10843634Y-16247222D01*
X10843634Y-16247222D02*
X10843634Y-16351984D01*
X10843634Y-16247222D02*
X10853158Y-16228174D01*
X10853158Y-16228174D02*
X10872205Y-16218650D01*
X10872205Y-16218650D02*
X10900777Y-16218650D01*
X10900777Y-16218650D02*
X10919825Y-16228174D01*
X10919825Y-16228174D02*
X10929348Y-16247222D01*
X10929348Y-16247222D02*
X10929348Y-16351984D01*
X11024586Y-16351984D02*
X11024586Y-16218650D01*
X11024586Y-16237698D02*
X11034110Y-16228174D01*
X11034110Y-16228174D02*
X11053158Y-16218650D01*
X11053158Y-16218650D02*
X11081729Y-16218650D01*
X11081729Y-16218650D02*
X11100777Y-16228174D01*
X11100777Y-16228174D02*
X11110301Y-16247222D01*
X11110301Y-16247222D02*
X11110301Y-16351984D01*
X11110301Y-16247222D02*
X11119825Y-16228174D01*
X11119825Y-16228174D02*
X11138872Y-16218650D01*
X11138872Y-16218650D02*
X11167444Y-16218650D01*
X11167444Y-16218650D02*
X11186491Y-16228174D01*
X11186491Y-16228174D02*
X11196015Y-16247222D01*
X11196015Y-16247222D02*
X11196015Y-16351984D01*
X11586491Y-16142460D02*
X11415063Y-16399603D01*
X11843634Y-16151984D02*
X11862682Y-16151984D01*
X11862682Y-16151984D02*
X11881729Y-16161508D01*
X11881729Y-16161508D02*
X11891253Y-16171031D01*
X11891253Y-16171031D02*
X11900777Y-16190079D01*
X11900777Y-16190079D02*
X11910301Y-16228174D01*
X11910301Y-16228174D02*
X11910301Y-16275793D01*
X11910301Y-16275793D02*
X11900777Y-16313888D01*
X11900777Y-16313888D02*
X11891253Y-16332936D01*
X11891253Y-16332936D02*
X11881729Y-16342460D01*
X11881729Y-16342460D02*
X11862682Y-16351984D01*
X11862682Y-16351984D02*
X11843634Y-16351984D01*
X11843634Y-16351984D02*
X11824586Y-16342460D01*
X11824586Y-16342460D02*
X11815063Y-16332936D01*
X11815063Y-16332936D02*
X11805539Y-16313888D01*
X11805539Y-16313888D02*
X11796015Y-16275793D01*
X11796015Y-16275793D02*
X11796015Y-16228174D01*
X11796015Y-16228174D02*
X11805539Y-16190079D01*
X11805539Y-16190079D02*
X11815063Y-16171031D01*
X11815063Y-16171031D02*
X11824586Y-16161508D01*
X11824586Y-16161508D02*
X11843634Y-16151984D01*
X11996015Y-16332936D02*
X12005539Y-16342460D01*
X12005539Y-16342460D02*
X11996015Y-16351984D01*
X11996015Y-16351984D02*
X11986491Y-16342460D01*
X11986491Y-16342460D02*
X11996015Y-16332936D01*
X11996015Y-16332936D02*
X11996015Y-16351984D01*
X12129348Y-16151984D02*
X12148396Y-16151984D01*
X12148396Y-16151984D02*
X12167444Y-16161508D01*
X12167444Y-16161508D02*
X12176967Y-16171031D01*
X12176967Y-16171031D02*
X12186491Y-16190079D01*
X12186491Y-16190079D02*
X12196015Y-16228174D01*
X12196015Y-16228174D02*
X12196015Y-16275793D01*
X12196015Y-16275793D02*
X12186491Y-16313888D01*
X12186491Y-16313888D02*
X12176967Y-16332936D01*
X12176967Y-16332936D02*
X12167444Y-16342460D01*
X12167444Y-16342460D02*
X12148396Y-16351984D01*
X12148396Y-16351984D02*
X12129348Y-16351984D01*
X12129348Y-16351984D02*
X12110301Y-16342460D01*
X12110301Y-16342460D02*
X12100777Y-16332936D01*
X12100777Y-16332936D02*
X12091253Y-16313888D01*
X12091253Y-16313888D02*
X12081729Y-16275793D01*
X12081729Y-16275793D02*
X12081729Y-16228174D01*
X12081729Y-16228174D02*
X12091253Y-16190079D01*
X12091253Y-16190079D02*
X12100777Y-16171031D01*
X12100777Y-16171031D02*
X12110301Y-16161508D01*
X12110301Y-16161508D02*
X12129348Y-16151984D01*
X12386491Y-16351984D02*
X12272206Y-16351984D01*
X12329348Y-16351984D02*
X12329348Y-16151984D01*
X12329348Y-16151984D02*
X12310301Y-16180555D01*
X12310301Y-16180555D02*
X12291253Y-16199603D01*
X12291253Y-16199603D02*
X12272206Y-16209127D01*
X12576967Y-16351984D02*
X12462682Y-16351984D01*
X12519825Y-16351984D02*
X12519825Y-16151984D01*
X12519825Y-16151984D02*
X12500777Y-16180555D01*
X12500777Y-16180555D02*
X12481729Y-16199603D01*
X12481729Y-16199603D02*
X12462682Y-16209127D01*
X12691253Y-16237698D02*
X12672206Y-16228174D01*
X12672206Y-16228174D02*
X12662682Y-16218650D01*
X12662682Y-16218650D02*
X12653158Y-16199603D01*
X12653158Y-16199603D02*
X12653158Y-16190079D01*
X12653158Y-16190079D02*
X12662682Y-16171031D01*
X12662682Y-16171031D02*
X12672206Y-16161508D01*
X12672206Y-16161508D02*
X12691253Y-16151984D01*
X12691253Y-16151984D02*
X12729348Y-16151984D01*
X12729348Y-16151984D02*
X12748396Y-16161508D01*
X12748396Y-16161508D02*
X12757920Y-16171031D01*
X12757920Y-16171031D02*
X12767444Y-16190079D01*
X12767444Y-16190079D02*
X12767444Y-16199603D01*
X12767444Y-16199603D02*
X12757920Y-16218650D01*
X12757920Y-16218650D02*
X12748396Y-16228174D01*
X12748396Y-16228174D02*
X12729348Y-16237698D01*
X12729348Y-16237698D02*
X12691253Y-16237698D01*
X12691253Y-16237698D02*
X12672206Y-16247222D01*
X12672206Y-16247222D02*
X12662682Y-16256746D01*
X12662682Y-16256746D02*
X12653158Y-16275793D01*
X12653158Y-16275793D02*
X12653158Y-16313888D01*
X12653158Y-16313888D02*
X12662682Y-16332936D01*
X12662682Y-16332936D02*
X12672206Y-16342460D01*
X12672206Y-16342460D02*
X12691253Y-16351984D01*
X12691253Y-16351984D02*
X12729348Y-16351984D01*
X12729348Y-16351984D02*
X12748396Y-16342460D01*
X12748396Y-16342460D02*
X12757920Y-16332936D01*
X12757920Y-16332936D02*
X12767444Y-16313888D01*
X12767444Y-16313888D02*
X12767444Y-16275793D01*
X12767444Y-16275793D02*
X12757920Y-16256746D01*
X12757920Y-16256746D02*
X12748396Y-16247222D01*
X12748396Y-16247222D02*
X12729348Y-16237698D01*
X12843634Y-16151984D02*
X12843634Y-16190079D01*
X12919825Y-16151984D02*
X12919825Y-16190079D01*
X13215063Y-16428174D02*
X13205539Y-16418650D01*
X13205539Y-16418650D02*
X13186491Y-16390079D01*
X13186491Y-16390079D02*
X13176968Y-16371031D01*
X13176968Y-16371031D02*
X13167444Y-16342460D01*
X13167444Y-16342460D02*
X13157920Y-16294841D01*
X13157920Y-16294841D02*
X13157920Y-16256746D01*
X13157920Y-16256746D02*
X13167444Y-16209127D01*
X13167444Y-16209127D02*
X13176968Y-16180555D01*
X13176968Y-16180555D02*
X13186491Y-16161508D01*
X13186491Y-16161508D02*
X13205539Y-16132936D01*
X13205539Y-16132936D02*
X13215063Y-16123412D01*
X13281729Y-16171031D02*
X13291253Y-16161508D01*
X13291253Y-16161508D02*
X13310301Y-16151984D01*
X13310301Y-16151984D02*
X13357920Y-16151984D01*
X13357920Y-16151984D02*
X13376968Y-16161508D01*
X13376968Y-16161508D02*
X13386491Y-16171031D01*
X13386491Y-16171031D02*
X13396015Y-16190079D01*
X13396015Y-16190079D02*
X13396015Y-16209127D01*
X13396015Y-16209127D02*
X13386491Y-16237698D01*
X13386491Y-16237698D02*
X13272206Y-16351984D01*
X13272206Y-16351984D02*
X13396015Y-16351984D01*
X13634110Y-16351984D02*
X13634110Y-16151984D01*
X13719825Y-16351984D02*
X13719825Y-16247222D01*
X13719825Y-16247222D02*
X13710301Y-16228174D01*
X13710301Y-16228174D02*
X13691253Y-16218650D01*
X13691253Y-16218650D02*
X13662682Y-16218650D01*
X13662682Y-16218650D02*
X13643634Y-16228174D01*
X13643634Y-16228174D02*
X13634110Y-16237698D01*
X13843634Y-16351984D02*
X13824587Y-16342460D01*
X13824587Y-16342460D02*
X13815063Y-16332936D01*
X13815063Y-16332936D02*
X13805539Y-16313888D01*
X13805539Y-16313888D02*
X13805539Y-16256746D01*
X13805539Y-16256746D02*
X13815063Y-16237698D01*
X13815063Y-16237698D02*
X13824587Y-16228174D01*
X13824587Y-16228174D02*
X13843634Y-16218650D01*
X13843634Y-16218650D02*
X13872206Y-16218650D01*
X13872206Y-16218650D02*
X13891253Y-16228174D01*
X13891253Y-16228174D02*
X13900777Y-16237698D01*
X13900777Y-16237698D02*
X13910301Y-16256746D01*
X13910301Y-16256746D02*
X13910301Y-16313888D01*
X13910301Y-16313888D02*
X13900777Y-16332936D01*
X13900777Y-16332936D02*
X13891253Y-16342460D01*
X13891253Y-16342460D02*
X13872206Y-16351984D01*
X13872206Y-16351984D02*
X13843634Y-16351984D01*
X14024587Y-16351984D02*
X14005539Y-16342460D01*
X14005539Y-16342460D02*
X13996015Y-16323412D01*
X13996015Y-16323412D02*
X13996015Y-16151984D01*
X14176968Y-16342460D02*
X14157920Y-16351984D01*
X14157920Y-16351984D02*
X14119825Y-16351984D01*
X14119825Y-16351984D02*
X14100777Y-16342460D01*
X14100777Y-16342460D02*
X14091253Y-16323412D01*
X14091253Y-16323412D02*
X14091253Y-16247222D01*
X14091253Y-16247222D02*
X14100777Y-16228174D01*
X14100777Y-16228174D02*
X14119825Y-16218650D01*
X14119825Y-16218650D02*
X14157920Y-16218650D01*
X14157920Y-16218650D02*
X14176968Y-16228174D01*
X14176968Y-16228174D02*
X14186491Y-16247222D01*
X14186491Y-16247222D02*
X14186491Y-16266269D01*
X14186491Y-16266269D02*
X14091253Y-16285317D01*
X14262682Y-16342460D02*
X14281730Y-16351984D01*
X14281730Y-16351984D02*
X14319825Y-16351984D01*
X14319825Y-16351984D02*
X14338872Y-16342460D01*
X14338872Y-16342460D02*
X14348396Y-16323412D01*
X14348396Y-16323412D02*
X14348396Y-16313888D01*
X14348396Y-16313888D02*
X14338872Y-16294841D01*
X14338872Y-16294841D02*
X14319825Y-16285317D01*
X14319825Y-16285317D02*
X14291253Y-16285317D01*
X14291253Y-16285317D02*
X14272206Y-16275793D01*
X14272206Y-16275793D02*
X14262682Y-16256746D01*
X14262682Y-16256746D02*
X14262682Y-16247222D01*
X14262682Y-16247222D02*
X14272206Y-16228174D01*
X14272206Y-16228174D02*
X14291253Y-16218650D01*
X14291253Y-16218650D02*
X14319825Y-16218650D01*
X14319825Y-16218650D02*
X14338872Y-16228174D01*
X14415063Y-16428174D02*
X14424587Y-16418650D01*
X14424587Y-16418650D02*
X14443634Y-16390079D01*
X14443634Y-16390079D02*
X14453158Y-16371031D01*
X14453158Y-16371031D02*
X14462682Y-16342460D01*
X14462682Y-16342460D02*
X14472206Y-16294841D01*
X14472206Y-16294841D02*
X14472206Y-16256746D01*
X14472206Y-16256746D02*
X14462682Y-16209127D01*
X14462682Y-16209127D02*
X14453158Y-16180555D01*
X14453158Y-16180555D02*
X14443634Y-16161508D01*
X14443634Y-16161508D02*
X14424587Y-16132936D01*
X14424587Y-16132936D02*
X14415063Y-16123412D01*
D12*
X9640000Y-16524500D02*
G75*
G02*
X9551100Y-16524500I-44450J0D01*
G01*
X9551100Y-16524500D02*
G75*
G02*
X9640000Y-16524500I44450J0D01*
G01*
D10*
X9938872Y-16415984D02*
X9957920Y-16415984D01*
X9957920Y-16415984D02*
X9976967Y-16425508D01*
X9976967Y-16425508D02*
X9986491Y-16435031D01*
X9986491Y-16435031D02*
X9996015Y-16454079D01*
X9996015Y-16454079D02*
X10005539Y-16492174D01*
X10005539Y-16492174D02*
X10005539Y-16539793D01*
X10005539Y-16539793D02*
X9996015Y-16577888D01*
X9996015Y-16577888D02*
X9986491Y-16596936D01*
X9986491Y-16596936D02*
X9976967Y-16606460D01*
X9976967Y-16606460D02*
X9957920Y-16615984D01*
X9957920Y-16615984D02*
X9938872Y-16615984D01*
X9938872Y-16615984D02*
X9919824Y-16606460D01*
X9919824Y-16606460D02*
X9910301Y-16596936D01*
X9910301Y-16596936D02*
X9900777Y-16577888D01*
X9900777Y-16577888D02*
X9891253Y-16539793D01*
X9891253Y-16539793D02*
X9891253Y-16492174D01*
X9891253Y-16492174D02*
X9900777Y-16454079D01*
X9900777Y-16454079D02*
X9910301Y-16435031D01*
X9910301Y-16435031D02*
X9919824Y-16425508D01*
X9919824Y-16425508D02*
X9938872Y-16415984D01*
X10091253Y-16596936D02*
X10100777Y-16606460D01*
X10100777Y-16606460D02*
X10091253Y-16615984D01*
X10091253Y-16615984D02*
X10081729Y-16606460D01*
X10081729Y-16606460D02*
X10091253Y-16596936D01*
X10091253Y-16596936D02*
X10091253Y-16615984D01*
X10215063Y-16501698D02*
X10196015Y-16492174D01*
X10196015Y-16492174D02*
X10186491Y-16482650D01*
X10186491Y-16482650D02*
X10176967Y-16463603D01*
X10176967Y-16463603D02*
X10176967Y-16454079D01*
X10176967Y-16454079D02*
X10186491Y-16435031D01*
X10186491Y-16435031D02*
X10196015Y-16425508D01*
X10196015Y-16425508D02*
X10215063Y-16415984D01*
X10215063Y-16415984D02*
X10253158Y-16415984D01*
X10253158Y-16415984D02*
X10272205Y-16425508D01*
X10272205Y-16425508D02*
X10281729Y-16435031D01*
X10281729Y-16435031D02*
X10291253Y-16454079D01*
X10291253Y-16454079D02*
X10291253Y-16463603D01*
X10291253Y-16463603D02*
X10281729Y-16482650D01*
X10281729Y-16482650D02*
X10272205Y-16492174D01*
X10272205Y-16492174D02*
X10253158Y-16501698D01*
X10253158Y-16501698D02*
X10215063Y-16501698D01*
X10215063Y-16501698D02*
X10196015Y-16511222D01*
X10196015Y-16511222D02*
X10186491Y-16520746D01*
X10186491Y-16520746D02*
X10176967Y-16539793D01*
X10176967Y-16539793D02*
X10176967Y-16577888D01*
X10176967Y-16577888D02*
X10186491Y-16596936D01*
X10186491Y-16596936D02*
X10196015Y-16606460D01*
X10196015Y-16606460D02*
X10215063Y-16615984D01*
X10215063Y-16615984D02*
X10253158Y-16615984D01*
X10253158Y-16615984D02*
X10272205Y-16606460D01*
X10272205Y-16606460D02*
X10281729Y-16596936D01*
X10281729Y-16596936D02*
X10291253Y-16577888D01*
X10291253Y-16577888D02*
X10291253Y-16539793D01*
X10291253Y-16539793D02*
X10281729Y-16520746D01*
X10281729Y-16520746D02*
X10272205Y-16511222D01*
X10272205Y-16511222D02*
X10253158Y-16501698D01*
X10405539Y-16501698D02*
X10386491Y-16492174D01*
X10386491Y-16492174D02*
X10376967Y-16482650D01*
X10376967Y-16482650D02*
X10367444Y-16463603D01*
X10367444Y-16463603D02*
X10367444Y-16454079D01*
X10367444Y-16454079D02*
X10376967Y-16435031D01*
X10376967Y-16435031D02*
X10386491Y-16425508D01*
X10386491Y-16425508D02*
X10405539Y-16415984D01*
X10405539Y-16415984D02*
X10443634Y-16415984D01*
X10443634Y-16415984D02*
X10462682Y-16425508D01*
X10462682Y-16425508D02*
X10472205Y-16435031D01*
X10472205Y-16435031D02*
X10481729Y-16454079D01*
X10481729Y-16454079D02*
X10481729Y-16463603D01*
X10481729Y-16463603D02*
X10472205Y-16482650D01*
X10472205Y-16482650D02*
X10462682Y-16492174D01*
X10462682Y-16492174D02*
X10443634Y-16501698D01*
X10443634Y-16501698D02*
X10405539Y-16501698D01*
X10405539Y-16501698D02*
X10386491Y-16511222D01*
X10386491Y-16511222D02*
X10376967Y-16520746D01*
X10376967Y-16520746D02*
X10367444Y-16539793D01*
X10367444Y-16539793D02*
X10367444Y-16577888D01*
X10367444Y-16577888D02*
X10376967Y-16596936D01*
X10376967Y-16596936D02*
X10386491Y-16606460D01*
X10386491Y-16606460D02*
X10405539Y-16615984D01*
X10405539Y-16615984D02*
X10443634Y-16615984D01*
X10443634Y-16615984D02*
X10462682Y-16606460D01*
X10462682Y-16606460D02*
X10472205Y-16596936D01*
X10472205Y-16596936D02*
X10481729Y-16577888D01*
X10481729Y-16577888D02*
X10481729Y-16539793D01*
X10481729Y-16539793D02*
X10472205Y-16520746D01*
X10472205Y-16520746D02*
X10462682Y-16511222D01*
X10462682Y-16511222D02*
X10443634Y-16501698D01*
X10576967Y-16615984D02*
X10615063Y-16615984D01*
X10615063Y-16615984D02*
X10634110Y-16606460D01*
X10634110Y-16606460D02*
X10643634Y-16596936D01*
X10643634Y-16596936D02*
X10662682Y-16568365D01*
X10662682Y-16568365D02*
X10672205Y-16530269D01*
X10672205Y-16530269D02*
X10672205Y-16454079D01*
X10672205Y-16454079D02*
X10662682Y-16435031D01*
X10662682Y-16435031D02*
X10653158Y-16425508D01*
X10653158Y-16425508D02*
X10634110Y-16415984D01*
X10634110Y-16415984D02*
X10596015Y-16415984D01*
X10596015Y-16415984D02*
X10576967Y-16425508D01*
X10576967Y-16425508D02*
X10567444Y-16435031D01*
X10567444Y-16435031D02*
X10557920Y-16454079D01*
X10557920Y-16454079D02*
X10557920Y-16501698D01*
X10557920Y-16501698D02*
X10567444Y-16520746D01*
X10567444Y-16520746D02*
X10576967Y-16530269D01*
X10576967Y-16530269D02*
X10596015Y-16539793D01*
X10596015Y-16539793D02*
X10634110Y-16539793D01*
X10634110Y-16539793D02*
X10653158Y-16530269D01*
X10653158Y-16530269D02*
X10662682Y-16520746D01*
X10662682Y-16520746D02*
X10672205Y-16501698D01*
X10757920Y-16615984D02*
X10757920Y-16482650D01*
X10757920Y-16501698D02*
X10767444Y-16492174D01*
X10767444Y-16492174D02*
X10786491Y-16482650D01*
X10786491Y-16482650D02*
X10815063Y-16482650D01*
X10815063Y-16482650D02*
X10834110Y-16492174D01*
X10834110Y-16492174D02*
X10843634Y-16511222D01*
X10843634Y-16511222D02*
X10843634Y-16615984D01*
X10843634Y-16511222D02*
X10853158Y-16492174D01*
X10853158Y-16492174D02*
X10872205Y-16482650D01*
X10872205Y-16482650D02*
X10900777Y-16482650D01*
X10900777Y-16482650D02*
X10919825Y-16492174D01*
X10919825Y-16492174D02*
X10929348Y-16511222D01*
X10929348Y-16511222D02*
X10929348Y-16615984D01*
X11024586Y-16615984D02*
X11024586Y-16482650D01*
X11024586Y-16501698D02*
X11034110Y-16492174D01*
X11034110Y-16492174D02*
X11053158Y-16482650D01*
X11053158Y-16482650D02*
X11081729Y-16482650D01*
X11081729Y-16482650D02*
X11100777Y-16492174D01*
X11100777Y-16492174D02*
X11110301Y-16511222D01*
X11110301Y-16511222D02*
X11110301Y-16615984D01*
X11110301Y-16511222D02*
X11119825Y-16492174D01*
X11119825Y-16492174D02*
X11138872Y-16482650D01*
X11138872Y-16482650D02*
X11167444Y-16482650D01*
X11167444Y-16482650D02*
X11186491Y-16492174D01*
X11186491Y-16492174D02*
X11196015Y-16511222D01*
X11196015Y-16511222D02*
X11196015Y-16615984D01*
X11586491Y-16406460D02*
X11415063Y-16663603D01*
X11843634Y-16415984D02*
X11862682Y-16415984D01*
X11862682Y-16415984D02*
X11881729Y-16425508D01*
X11881729Y-16425508D02*
X11891253Y-16435031D01*
X11891253Y-16435031D02*
X11900777Y-16454079D01*
X11900777Y-16454079D02*
X11910301Y-16492174D01*
X11910301Y-16492174D02*
X11910301Y-16539793D01*
X11910301Y-16539793D02*
X11900777Y-16577888D01*
X11900777Y-16577888D02*
X11891253Y-16596936D01*
X11891253Y-16596936D02*
X11881729Y-16606460D01*
X11881729Y-16606460D02*
X11862682Y-16615984D01*
X11862682Y-16615984D02*
X11843634Y-16615984D01*
X11843634Y-16615984D02*
X11824586Y-16606460D01*
X11824586Y-16606460D02*
X11815063Y-16596936D01*
X11815063Y-16596936D02*
X11805539Y-16577888D01*
X11805539Y-16577888D02*
X11796015Y-16539793D01*
X11796015Y-16539793D02*
X11796015Y-16492174D01*
X11796015Y-16492174D02*
X11805539Y-16454079D01*
X11805539Y-16454079D02*
X11815063Y-16435031D01*
X11815063Y-16435031D02*
X11824586Y-16425508D01*
X11824586Y-16425508D02*
X11843634Y-16415984D01*
X11996015Y-16596936D02*
X12005539Y-16606460D01*
X12005539Y-16606460D02*
X11996015Y-16615984D01*
X11996015Y-16615984D02*
X11986491Y-16606460D01*
X11986491Y-16606460D02*
X11996015Y-16596936D01*
X11996015Y-16596936D02*
X11996015Y-16615984D01*
X12129348Y-16415984D02*
X12148396Y-16415984D01*
X12148396Y-16415984D02*
X12167444Y-16425508D01*
X12167444Y-16425508D02*
X12176967Y-16435031D01*
X12176967Y-16435031D02*
X12186491Y-16454079D01*
X12186491Y-16454079D02*
X12196015Y-16492174D01*
X12196015Y-16492174D02*
X12196015Y-16539793D01*
X12196015Y-16539793D02*
X12186491Y-16577888D01*
X12186491Y-16577888D02*
X12176967Y-16596936D01*
X12176967Y-16596936D02*
X12167444Y-16606460D01*
X12167444Y-16606460D02*
X12148396Y-16615984D01*
X12148396Y-16615984D02*
X12129348Y-16615984D01*
X12129348Y-16615984D02*
X12110301Y-16606460D01*
X12110301Y-16606460D02*
X12100777Y-16596936D01*
X12100777Y-16596936D02*
X12091253Y-16577888D01*
X12091253Y-16577888D02*
X12081729Y-16539793D01*
X12081729Y-16539793D02*
X12081729Y-16492174D01*
X12081729Y-16492174D02*
X12091253Y-16454079D01*
X12091253Y-16454079D02*
X12100777Y-16435031D01*
X12100777Y-16435031D02*
X12110301Y-16425508D01*
X12110301Y-16425508D02*
X12129348Y-16415984D01*
X12262682Y-16415984D02*
X12386491Y-16415984D01*
X12386491Y-16415984D02*
X12319825Y-16492174D01*
X12319825Y-16492174D02*
X12348396Y-16492174D01*
X12348396Y-16492174D02*
X12367444Y-16501698D01*
X12367444Y-16501698D02*
X12376967Y-16511222D01*
X12376967Y-16511222D02*
X12386491Y-16530269D01*
X12386491Y-16530269D02*
X12386491Y-16577888D01*
X12386491Y-16577888D02*
X12376967Y-16596936D01*
X12376967Y-16596936D02*
X12367444Y-16606460D01*
X12367444Y-16606460D02*
X12348396Y-16615984D01*
X12348396Y-16615984D02*
X12291253Y-16615984D01*
X12291253Y-16615984D02*
X12272206Y-16606460D01*
X12272206Y-16606460D02*
X12262682Y-16596936D01*
X12567444Y-16415984D02*
X12472206Y-16415984D01*
X12472206Y-16415984D02*
X12462682Y-16511222D01*
X12462682Y-16511222D02*
X12472206Y-16501698D01*
X12472206Y-16501698D02*
X12491253Y-16492174D01*
X12491253Y-16492174D02*
X12538872Y-16492174D01*
X12538872Y-16492174D02*
X12557920Y-16501698D01*
X12557920Y-16501698D02*
X12567444Y-16511222D01*
X12567444Y-16511222D02*
X12576967Y-16530269D01*
X12576967Y-16530269D02*
X12576967Y-16577888D01*
X12576967Y-16577888D02*
X12567444Y-16596936D01*
X12567444Y-16596936D02*
X12557920Y-16606460D01*
X12557920Y-16606460D02*
X12538872Y-16615984D01*
X12538872Y-16615984D02*
X12491253Y-16615984D01*
X12491253Y-16615984D02*
X12472206Y-16606460D01*
X12472206Y-16606460D02*
X12462682Y-16596936D01*
X12700777Y-16415984D02*
X12719825Y-16415984D01*
X12719825Y-16415984D02*
X12738872Y-16425508D01*
X12738872Y-16425508D02*
X12748396Y-16435031D01*
X12748396Y-16435031D02*
X12757920Y-16454079D01*
X12757920Y-16454079D02*
X12767444Y-16492174D01*
X12767444Y-16492174D02*
X12767444Y-16539793D01*
X12767444Y-16539793D02*
X12757920Y-16577888D01*
X12757920Y-16577888D02*
X12748396Y-16596936D01*
X12748396Y-16596936D02*
X12738872Y-16606460D01*
X12738872Y-16606460D02*
X12719825Y-16615984D01*
X12719825Y-16615984D02*
X12700777Y-16615984D01*
X12700777Y-16615984D02*
X12681729Y-16606460D01*
X12681729Y-16606460D02*
X12672206Y-16596936D01*
X12672206Y-16596936D02*
X12662682Y-16577888D01*
X12662682Y-16577888D02*
X12653158Y-16539793D01*
X12653158Y-16539793D02*
X12653158Y-16492174D01*
X12653158Y-16492174D02*
X12662682Y-16454079D01*
X12662682Y-16454079D02*
X12672206Y-16435031D01*
X12672206Y-16435031D02*
X12681729Y-16425508D01*
X12681729Y-16425508D02*
X12700777Y-16415984D01*
X12843634Y-16415984D02*
X12843634Y-16454079D01*
X12919825Y-16415984D02*
X12919825Y-16454079D01*
X13215063Y-16692174D02*
X13205539Y-16682650D01*
X13205539Y-16682650D02*
X13186491Y-16654079D01*
X13186491Y-16654079D02*
X13176968Y-16635031D01*
X13176968Y-16635031D02*
X13167444Y-16606460D01*
X13167444Y-16606460D02*
X13157920Y-16558841D01*
X13157920Y-16558841D02*
X13157920Y-16520746D01*
X13157920Y-16520746D02*
X13167444Y-16473127D01*
X13167444Y-16473127D02*
X13176968Y-16444555D01*
X13176968Y-16444555D02*
X13186491Y-16425508D01*
X13186491Y-16425508D02*
X13205539Y-16396936D01*
X13205539Y-16396936D02*
X13215063Y-16387412D01*
X13281729Y-16435031D02*
X13291253Y-16425508D01*
X13291253Y-16425508D02*
X13310301Y-16415984D01*
X13310301Y-16415984D02*
X13357920Y-16415984D01*
X13357920Y-16415984D02*
X13376968Y-16425508D01*
X13376968Y-16425508D02*
X13386491Y-16435031D01*
X13386491Y-16435031D02*
X13396015Y-16454079D01*
X13396015Y-16454079D02*
X13396015Y-16473127D01*
X13396015Y-16473127D02*
X13386491Y-16501698D01*
X13386491Y-16501698D02*
X13272206Y-16615984D01*
X13272206Y-16615984D02*
X13396015Y-16615984D01*
X13567444Y-16482650D02*
X13567444Y-16615984D01*
X13519825Y-16406460D02*
X13472206Y-16549317D01*
X13472206Y-16549317D02*
X13596015Y-16549317D01*
X13824587Y-16615984D02*
X13824587Y-16415984D01*
X13910301Y-16615984D02*
X13910301Y-16511222D01*
X13910301Y-16511222D02*
X13900777Y-16492174D01*
X13900777Y-16492174D02*
X13881730Y-16482650D01*
X13881730Y-16482650D02*
X13853158Y-16482650D01*
X13853158Y-16482650D02*
X13834110Y-16492174D01*
X13834110Y-16492174D02*
X13824587Y-16501698D01*
X14034110Y-16615984D02*
X14015063Y-16606460D01*
X14015063Y-16606460D02*
X14005539Y-16596936D01*
X14005539Y-16596936D02*
X13996015Y-16577888D01*
X13996015Y-16577888D02*
X13996015Y-16520746D01*
X13996015Y-16520746D02*
X14005539Y-16501698D01*
X14005539Y-16501698D02*
X14015063Y-16492174D01*
X14015063Y-16492174D02*
X14034110Y-16482650D01*
X14034110Y-16482650D02*
X14062682Y-16482650D01*
X14062682Y-16482650D02*
X14081730Y-16492174D01*
X14081730Y-16492174D02*
X14091253Y-16501698D01*
X14091253Y-16501698D02*
X14100777Y-16520746D01*
X14100777Y-16520746D02*
X14100777Y-16577888D01*
X14100777Y-16577888D02*
X14091253Y-16596936D01*
X14091253Y-16596936D02*
X14081730Y-16606460D01*
X14081730Y-16606460D02*
X14062682Y-16615984D01*
X14062682Y-16615984D02*
X14034110Y-16615984D01*
X14215063Y-16615984D02*
X14196015Y-16606460D01*
X14196015Y-16606460D02*
X14186491Y-16587412D01*
X14186491Y-16587412D02*
X14186491Y-16415984D01*
X14367444Y-16606460D02*
X14348396Y-16615984D01*
X14348396Y-16615984D02*
X14310301Y-16615984D01*
X14310301Y-16615984D02*
X14291253Y-16606460D01*
X14291253Y-16606460D02*
X14281730Y-16587412D01*
X14281730Y-16587412D02*
X14281730Y-16511222D01*
X14281730Y-16511222D02*
X14291253Y-16492174D01*
X14291253Y-16492174D02*
X14310301Y-16482650D01*
X14310301Y-16482650D02*
X14348396Y-16482650D01*
X14348396Y-16482650D02*
X14367444Y-16492174D01*
X14367444Y-16492174D02*
X14376968Y-16511222D01*
X14376968Y-16511222D02*
X14376968Y-16530269D01*
X14376968Y-16530269D02*
X14281730Y-16549317D01*
X14453158Y-16606460D02*
X14472206Y-16615984D01*
X14472206Y-16615984D02*
X14510301Y-16615984D01*
X14510301Y-16615984D02*
X14529349Y-16606460D01*
X14529349Y-16606460D02*
X14538872Y-16587412D01*
X14538872Y-16587412D02*
X14538872Y-16577888D01*
X14538872Y-16577888D02*
X14529349Y-16558841D01*
X14529349Y-16558841D02*
X14510301Y-16549317D01*
X14510301Y-16549317D02*
X14481730Y-16549317D01*
X14481730Y-16549317D02*
X14462682Y-16539793D01*
X14462682Y-16539793D02*
X14453158Y-16520746D01*
X14453158Y-16520746D02*
X14453158Y-16511222D01*
X14453158Y-16511222D02*
X14462682Y-16492174D01*
X14462682Y-16492174D02*
X14481730Y-16482650D01*
X14481730Y-16482650D02*
X14510301Y-16482650D01*
X14510301Y-16482650D02*
X14529349Y-16492174D01*
X14605539Y-16692174D02*
X14615063Y-16682650D01*
X14615063Y-16682650D02*
X14634111Y-16654079D01*
X14634111Y-16654079D02*
X14643634Y-16635031D01*
X14643634Y-16635031D02*
X14653158Y-16606460D01*
X14653158Y-16606460D02*
X14662682Y-16558841D01*
X14662682Y-16558841D02*
X14662682Y-16520746D01*
X14662682Y-16520746D02*
X14653158Y-16473127D01*
X14653158Y-16473127D02*
X14643634Y-16444555D01*
X14643634Y-16444555D02*
X14634111Y-16425508D01*
X14634111Y-16425508D02*
X14615063Y-16396936D01*
X14615063Y-16396936D02*
X14605539Y-16387412D01*
D13*
X9565000Y-16713500D02*
X9565000Y-16863500D01*
X9490000Y-16788500D02*
X9640000Y-16788500D01*
D10*
X10005539Y-16879984D02*
X9891253Y-16879984D01*
X9948396Y-16879984D02*
X9948396Y-16679984D01*
X9948396Y-16679984D02*
X9929348Y-16708555D01*
X9929348Y-16708555D02*
X9910301Y-16727603D01*
X9910301Y-16727603D02*
X9891253Y-16737127D01*
X10091253Y-16860936D02*
X10100777Y-16870460D01*
X10100777Y-16870460D02*
X10091253Y-16879984D01*
X10091253Y-16879984D02*
X10081729Y-16870460D01*
X10081729Y-16870460D02*
X10091253Y-16860936D01*
X10091253Y-16860936D02*
X10091253Y-16879984D01*
X10281729Y-16679984D02*
X10186491Y-16679984D01*
X10186491Y-16679984D02*
X10176967Y-16775222D01*
X10176967Y-16775222D02*
X10186491Y-16765698D01*
X10186491Y-16765698D02*
X10205539Y-16756174D01*
X10205539Y-16756174D02*
X10253158Y-16756174D01*
X10253158Y-16756174D02*
X10272205Y-16765698D01*
X10272205Y-16765698D02*
X10281729Y-16775222D01*
X10281729Y-16775222D02*
X10291253Y-16794270D01*
X10291253Y-16794270D02*
X10291253Y-16841889D01*
X10291253Y-16841889D02*
X10281729Y-16860936D01*
X10281729Y-16860936D02*
X10272205Y-16870460D01*
X10272205Y-16870460D02*
X10253158Y-16879984D01*
X10253158Y-16879984D02*
X10205539Y-16879984D01*
X10205539Y-16879984D02*
X10186491Y-16870460D01*
X10186491Y-16870460D02*
X10176967Y-16860936D01*
X10415063Y-16679984D02*
X10434110Y-16679984D01*
X10434110Y-16679984D02*
X10453158Y-16689508D01*
X10453158Y-16689508D02*
X10462682Y-16699031D01*
X10462682Y-16699031D02*
X10472205Y-16718079D01*
X10472205Y-16718079D02*
X10481729Y-16756174D01*
X10481729Y-16756174D02*
X10481729Y-16803793D01*
X10481729Y-16803793D02*
X10472205Y-16841889D01*
X10472205Y-16841889D02*
X10462682Y-16860936D01*
X10462682Y-16860936D02*
X10453158Y-16870460D01*
X10453158Y-16870460D02*
X10434110Y-16879984D01*
X10434110Y-16879984D02*
X10415063Y-16879984D01*
X10415063Y-16879984D02*
X10396015Y-16870460D01*
X10396015Y-16870460D02*
X10386491Y-16860936D01*
X10386491Y-16860936D02*
X10376967Y-16841889D01*
X10376967Y-16841889D02*
X10367444Y-16803793D01*
X10367444Y-16803793D02*
X10367444Y-16756174D01*
X10367444Y-16756174D02*
X10376967Y-16718079D01*
X10376967Y-16718079D02*
X10386491Y-16699031D01*
X10386491Y-16699031D02*
X10396015Y-16689508D01*
X10396015Y-16689508D02*
X10415063Y-16679984D01*
X10605539Y-16679984D02*
X10624586Y-16679984D01*
X10624586Y-16679984D02*
X10643634Y-16689508D01*
X10643634Y-16689508D02*
X10653158Y-16699031D01*
X10653158Y-16699031D02*
X10662682Y-16718079D01*
X10662682Y-16718079D02*
X10672205Y-16756174D01*
X10672205Y-16756174D02*
X10672205Y-16803793D01*
X10672205Y-16803793D02*
X10662682Y-16841889D01*
X10662682Y-16841889D02*
X10653158Y-16860936D01*
X10653158Y-16860936D02*
X10643634Y-16870460D01*
X10643634Y-16870460D02*
X10624586Y-16879984D01*
X10624586Y-16879984D02*
X10605539Y-16879984D01*
X10605539Y-16879984D02*
X10586491Y-16870460D01*
X10586491Y-16870460D02*
X10576967Y-16860936D01*
X10576967Y-16860936D02*
X10567444Y-16841889D01*
X10567444Y-16841889D02*
X10557920Y-16803793D01*
X10557920Y-16803793D02*
X10557920Y-16756174D01*
X10557920Y-16756174D02*
X10567444Y-16718079D01*
X10567444Y-16718079D02*
X10576967Y-16699031D01*
X10576967Y-16699031D02*
X10586491Y-16689508D01*
X10586491Y-16689508D02*
X10605539Y-16679984D01*
X10757920Y-16879984D02*
X10757920Y-16746650D01*
X10757920Y-16765698D02*
X10767444Y-16756174D01*
X10767444Y-16756174D02*
X10786491Y-16746650D01*
X10786491Y-16746650D02*
X10815063Y-16746650D01*
X10815063Y-16746650D02*
X10834110Y-16756174D01*
X10834110Y-16756174D02*
X10843634Y-16775222D01*
X10843634Y-16775222D02*
X10843634Y-16879984D01*
X10843634Y-16775222D02*
X10853158Y-16756174D01*
X10853158Y-16756174D02*
X10872205Y-16746650D01*
X10872205Y-16746650D02*
X10900777Y-16746650D01*
X10900777Y-16746650D02*
X10919825Y-16756174D01*
X10919825Y-16756174D02*
X10929348Y-16775222D01*
X10929348Y-16775222D02*
X10929348Y-16879984D01*
X11024586Y-16879984D02*
X11024586Y-16746650D01*
X11024586Y-16765698D02*
X11034110Y-16756174D01*
X11034110Y-16756174D02*
X11053158Y-16746650D01*
X11053158Y-16746650D02*
X11081729Y-16746650D01*
X11081729Y-16746650D02*
X11100777Y-16756174D01*
X11100777Y-16756174D02*
X11110301Y-16775222D01*
X11110301Y-16775222D02*
X11110301Y-16879984D01*
X11110301Y-16775222D02*
X11119825Y-16756174D01*
X11119825Y-16756174D02*
X11138872Y-16746650D01*
X11138872Y-16746650D02*
X11167444Y-16746650D01*
X11167444Y-16746650D02*
X11186491Y-16756174D01*
X11186491Y-16756174D02*
X11196015Y-16775222D01*
X11196015Y-16775222D02*
X11196015Y-16879984D01*
X11586491Y-16670460D02*
X11415063Y-16927603D01*
X11843634Y-16679984D02*
X11862682Y-16679984D01*
X11862682Y-16679984D02*
X11881729Y-16689508D01*
X11881729Y-16689508D02*
X11891253Y-16699031D01*
X11891253Y-16699031D02*
X11900777Y-16718079D01*
X11900777Y-16718079D02*
X11910301Y-16756174D01*
X11910301Y-16756174D02*
X11910301Y-16803793D01*
X11910301Y-16803793D02*
X11900777Y-16841889D01*
X11900777Y-16841889D02*
X11891253Y-16860936D01*
X11891253Y-16860936D02*
X11881729Y-16870460D01*
X11881729Y-16870460D02*
X11862682Y-16879984D01*
X11862682Y-16879984D02*
X11843634Y-16879984D01*
X11843634Y-16879984D02*
X11824586Y-16870460D01*
X11824586Y-16870460D02*
X11815063Y-16860936D01*
X11815063Y-16860936D02*
X11805539Y-16841889D01*
X11805539Y-16841889D02*
X11796015Y-16803793D01*
X11796015Y-16803793D02*
X11796015Y-16756174D01*
X11796015Y-16756174D02*
X11805539Y-16718079D01*
X11805539Y-16718079D02*
X11815063Y-16699031D01*
X11815063Y-16699031D02*
X11824586Y-16689508D01*
X11824586Y-16689508D02*
X11843634Y-16679984D01*
X11996015Y-16860936D02*
X12005539Y-16870460D01*
X12005539Y-16870460D02*
X11996015Y-16879984D01*
X11996015Y-16879984D02*
X11986491Y-16870460D01*
X11986491Y-16870460D02*
X11996015Y-16860936D01*
X11996015Y-16860936D02*
X11996015Y-16879984D01*
X12129348Y-16679984D02*
X12148396Y-16679984D01*
X12148396Y-16679984D02*
X12167444Y-16689508D01*
X12167444Y-16689508D02*
X12176967Y-16699031D01*
X12176967Y-16699031D02*
X12186491Y-16718079D01*
X12186491Y-16718079D02*
X12196015Y-16756174D01*
X12196015Y-16756174D02*
X12196015Y-16803793D01*
X12196015Y-16803793D02*
X12186491Y-16841889D01*
X12186491Y-16841889D02*
X12176967Y-16860936D01*
X12176967Y-16860936D02*
X12167444Y-16870460D01*
X12167444Y-16870460D02*
X12148396Y-16879984D01*
X12148396Y-16879984D02*
X12129348Y-16879984D01*
X12129348Y-16879984D02*
X12110301Y-16870460D01*
X12110301Y-16870460D02*
X12100777Y-16860936D01*
X12100777Y-16860936D02*
X12091253Y-16841889D01*
X12091253Y-16841889D02*
X12081729Y-16803793D01*
X12081729Y-16803793D02*
X12081729Y-16756174D01*
X12081729Y-16756174D02*
X12091253Y-16718079D01*
X12091253Y-16718079D02*
X12100777Y-16699031D01*
X12100777Y-16699031D02*
X12110301Y-16689508D01*
X12110301Y-16689508D02*
X12129348Y-16679984D01*
X12376967Y-16679984D02*
X12281729Y-16679984D01*
X12281729Y-16679984D02*
X12272206Y-16775222D01*
X12272206Y-16775222D02*
X12281729Y-16765698D01*
X12281729Y-16765698D02*
X12300777Y-16756174D01*
X12300777Y-16756174D02*
X12348396Y-16756174D01*
X12348396Y-16756174D02*
X12367444Y-16765698D01*
X12367444Y-16765698D02*
X12376967Y-16775222D01*
X12376967Y-16775222D02*
X12386491Y-16794270D01*
X12386491Y-16794270D02*
X12386491Y-16841889D01*
X12386491Y-16841889D02*
X12376967Y-16860936D01*
X12376967Y-16860936D02*
X12367444Y-16870460D01*
X12367444Y-16870460D02*
X12348396Y-16879984D01*
X12348396Y-16879984D02*
X12300777Y-16879984D01*
X12300777Y-16879984D02*
X12281729Y-16870460D01*
X12281729Y-16870460D02*
X12272206Y-16860936D01*
X12481729Y-16879984D02*
X12519825Y-16879984D01*
X12519825Y-16879984D02*
X12538872Y-16870460D01*
X12538872Y-16870460D02*
X12548396Y-16860936D01*
X12548396Y-16860936D02*
X12567444Y-16832365D01*
X12567444Y-16832365D02*
X12576967Y-16794270D01*
X12576967Y-16794270D02*
X12576967Y-16718079D01*
X12576967Y-16718079D02*
X12567444Y-16699031D01*
X12567444Y-16699031D02*
X12557920Y-16689508D01*
X12557920Y-16689508D02*
X12538872Y-16679984D01*
X12538872Y-16679984D02*
X12500777Y-16679984D01*
X12500777Y-16679984D02*
X12481729Y-16689508D01*
X12481729Y-16689508D02*
X12472206Y-16699031D01*
X12472206Y-16699031D02*
X12462682Y-16718079D01*
X12462682Y-16718079D02*
X12462682Y-16765698D01*
X12462682Y-16765698D02*
X12472206Y-16784746D01*
X12472206Y-16784746D02*
X12481729Y-16794270D01*
X12481729Y-16794270D02*
X12500777Y-16803793D01*
X12500777Y-16803793D02*
X12538872Y-16803793D01*
X12538872Y-16803793D02*
X12557920Y-16794270D01*
X12557920Y-16794270D02*
X12567444Y-16784746D01*
X12567444Y-16784746D02*
X12576967Y-16765698D01*
X12767444Y-16879984D02*
X12653158Y-16879984D01*
X12710301Y-16879984D02*
X12710301Y-16679984D01*
X12710301Y-16679984D02*
X12691253Y-16708555D01*
X12691253Y-16708555D02*
X12672206Y-16727603D01*
X12672206Y-16727603D02*
X12653158Y-16737127D01*
X12843634Y-16679984D02*
X12843634Y-16718079D01*
X12919825Y-16679984D02*
X12919825Y-16718079D01*
X13215063Y-16956174D02*
X13205539Y-16946650D01*
X13205539Y-16946650D02*
X13186491Y-16918079D01*
X13186491Y-16918079D02*
X13176968Y-16899031D01*
X13176968Y-16899031D02*
X13167444Y-16870460D01*
X13167444Y-16870460D02*
X13157920Y-16822841D01*
X13157920Y-16822841D02*
X13157920Y-16784746D01*
X13157920Y-16784746D02*
X13167444Y-16737127D01*
X13167444Y-16737127D02*
X13176968Y-16708555D01*
X13176968Y-16708555D02*
X13186491Y-16689508D01*
X13186491Y-16689508D02*
X13205539Y-16660936D01*
X13205539Y-16660936D02*
X13215063Y-16651412D01*
X13396015Y-16879984D02*
X13281729Y-16879984D01*
X13338872Y-16879984D02*
X13338872Y-16679984D01*
X13338872Y-16679984D02*
X13319825Y-16708555D01*
X13319825Y-16708555D02*
X13300777Y-16727603D01*
X13300777Y-16727603D02*
X13281729Y-16737127D01*
X13519825Y-16679984D02*
X13538872Y-16679984D01*
X13538872Y-16679984D02*
X13557920Y-16689508D01*
X13557920Y-16689508D02*
X13567444Y-16699031D01*
X13567444Y-16699031D02*
X13576968Y-16718079D01*
X13576968Y-16718079D02*
X13586491Y-16756174D01*
X13586491Y-16756174D02*
X13586491Y-16803793D01*
X13586491Y-16803793D02*
X13576968Y-16841889D01*
X13576968Y-16841889D02*
X13567444Y-16860936D01*
X13567444Y-16860936D02*
X13557920Y-16870460D01*
X13557920Y-16870460D02*
X13538872Y-16879984D01*
X13538872Y-16879984D02*
X13519825Y-16879984D01*
X13519825Y-16879984D02*
X13500777Y-16870460D01*
X13500777Y-16870460D02*
X13491253Y-16860936D01*
X13491253Y-16860936D02*
X13481729Y-16841889D01*
X13481729Y-16841889D02*
X13472206Y-16803793D01*
X13472206Y-16803793D02*
X13472206Y-16756174D01*
X13472206Y-16756174D02*
X13481729Y-16718079D01*
X13481729Y-16718079D02*
X13491253Y-16699031D01*
X13491253Y-16699031D02*
X13500777Y-16689508D01*
X13500777Y-16689508D02*
X13519825Y-16679984D01*
X13824587Y-16879984D02*
X13824587Y-16679984D01*
X13910301Y-16879984D02*
X13910301Y-16775222D01*
X13910301Y-16775222D02*
X13900777Y-16756174D01*
X13900777Y-16756174D02*
X13881730Y-16746650D01*
X13881730Y-16746650D02*
X13853158Y-16746650D01*
X13853158Y-16746650D02*
X13834110Y-16756174D01*
X13834110Y-16756174D02*
X13824587Y-16765698D01*
X14034110Y-16879984D02*
X14015063Y-16870460D01*
X14015063Y-16870460D02*
X14005539Y-16860936D01*
X14005539Y-16860936D02*
X13996015Y-16841889D01*
X13996015Y-16841889D02*
X13996015Y-16784746D01*
X13996015Y-16784746D02*
X14005539Y-16765698D01*
X14005539Y-16765698D02*
X14015063Y-16756174D01*
X14015063Y-16756174D02*
X14034110Y-16746650D01*
X14034110Y-16746650D02*
X14062682Y-16746650D01*
X14062682Y-16746650D02*
X14081730Y-16756174D01*
X14081730Y-16756174D02*
X14091253Y-16765698D01*
X14091253Y-16765698D02*
X14100777Y-16784746D01*
X14100777Y-16784746D02*
X14100777Y-16841889D01*
X14100777Y-16841889D02*
X14091253Y-16860936D01*
X14091253Y-16860936D02*
X14081730Y-16870460D01*
X14081730Y-16870460D02*
X14062682Y-16879984D01*
X14062682Y-16879984D02*
X14034110Y-16879984D01*
X14215063Y-16879984D02*
X14196015Y-16870460D01*
X14196015Y-16870460D02*
X14186491Y-16851412D01*
X14186491Y-16851412D02*
X14186491Y-16679984D01*
X14367444Y-16870460D02*
X14348396Y-16879984D01*
X14348396Y-16879984D02*
X14310301Y-16879984D01*
X14310301Y-16879984D02*
X14291253Y-16870460D01*
X14291253Y-16870460D02*
X14281730Y-16851412D01*
X14281730Y-16851412D02*
X14281730Y-16775222D01*
X14281730Y-16775222D02*
X14291253Y-16756174D01*
X14291253Y-16756174D02*
X14310301Y-16746650D01*
X14310301Y-16746650D02*
X14348396Y-16746650D01*
X14348396Y-16746650D02*
X14367444Y-16756174D01*
X14367444Y-16756174D02*
X14376968Y-16775222D01*
X14376968Y-16775222D02*
X14376968Y-16794270D01*
X14376968Y-16794270D02*
X14281730Y-16813317D01*
X14453158Y-16870460D02*
X14472206Y-16879984D01*
X14472206Y-16879984D02*
X14510301Y-16879984D01*
X14510301Y-16879984D02*
X14529349Y-16870460D01*
X14529349Y-16870460D02*
X14538872Y-16851412D01*
X14538872Y-16851412D02*
X14538872Y-16841889D01*
X14538872Y-16841889D02*
X14529349Y-16822841D01*
X14529349Y-16822841D02*
X14510301Y-16813317D01*
X14510301Y-16813317D02*
X14481730Y-16813317D01*
X14481730Y-16813317D02*
X14462682Y-16803793D01*
X14462682Y-16803793D02*
X14453158Y-16784746D01*
X14453158Y-16784746D02*
X14453158Y-16775222D01*
X14453158Y-16775222D02*
X14462682Y-16756174D01*
X14462682Y-16756174D02*
X14481730Y-16746650D01*
X14481730Y-16746650D02*
X14510301Y-16746650D01*
X14510301Y-16746650D02*
X14529349Y-16756174D01*
X14605539Y-16956174D02*
X14615063Y-16946650D01*
X14615063Y-16946650D02*
X14634111Y-16918079D01*
X14634111Y-16918079D02*
X14643634Y-16899031D01*
X14643634Y-16899031D02*
X14653158Y-16870460D01*
X14653158Y-16870460D02*
X14662682Y-16822841D01*
X14662682Y-16822841D02*
X14662682Y-16784746D01*
X14662682Y-16784746D02*
X14653158Y-16737127D01*
X14653158Y-16737127D02*
X14643634Y-16708555D01*
X14643634Y-16708555D02*
X14634111Y-16689508D01*
X14634111Y-16689508D02*
X14615063Y-16660936D01*
X14615063Y-16660936D02*
X14605539Y-16651412D01*
M02*
